<svg xmlns="http://www.w3.org/2000/svg" xmlns:xlink="http://www.w3.org/1999/xlink" version="1.1" x="0px" y="0px" viewBox="0 0 100 125" enable-background="new 0 0 100 100" xml:space="preserve"><rect fill="none" width="100" height="100"/><path d="M74.595,5h-4.189H29.594h-4.188c-1.602,0-2.898,1.296-2.898,2.898c0,1.602,1.296,2.898,2.898,2.898h4.188v63.798  C29.594,85.848,38.747,95,50,95s20.405-9.152,20.405-20.405V10.796h4.189c1.602,0,2.897-1.296,2.897-2.898  C77.492,6.296,76.196,5,74.595,5z M50,89.204c-8.058,0-14.609-6.555-14.609-14.609V47.476c0.863,0.232,1.565,0.56,2.304,0.911  c1.506,0.725,3.212,1.545,6.456,1.545c3.249,0,4.958-0.821,6.467-1.545c1.406-0.673,2.62-1.256,5.213-1.256  c2.587,0,3.804,0.583,5.211,1.256c0.971,0.47,2.074,0.951,3.568,1.251v24.957C64.609,82.649,58.055,89.204,50,89.204z   M64.609,46.688c-0.866-0.232-1.573-0.555-2.315-0.911c-1.508-0.725-3.215-1.545-6.464-1.545s-4.958,0.821-6.467,1.545  c-1.407,0.674-2.624,1.257-5.213,1.257c-2.584,0-3.795-0.583-5.202-1.257c-0.968-0.464-2.066-0.951-3.558-1.251v-33.73h29.219  V46.688z M43.83,43.326c2.638,0,4.783-2.145,4.783-4.783s-2.146-4.783-4.783-4.783s-4.783,2.146-4.783,4.783  S41.192,43.326,43.83,43.326z M43.83,36.659c1.042,0,1.885,0.843,1.885,1.885s-0.843,1.885-1.885,1.885s-1.885-0.843-1.885-1.885  S42.789,36.659,43.83,36.659z M48.211,31.061c2.638,0,4.783-2.146,4.783-4.783s-2.145-4.783-4.783-4.783s-4.783,2.146-4.783,4.783  S45.574,31.061,48.211,31.061z M48.211,24.393c1.042,0,1.885,0.843,1.885,1.885s-0.843,1.885-1.885,1.885s-1.885-0.843-1.885-1.885  S47.17,24.393,48.211,24.393z M57.585,39.993c2.641,0,4.789-2.146,4.789-4.783s-2.148-4.783-4.789-4.783  c-2.638,0-4.783,2.146-4.783,4.783S54.947,39.993,57.585,39.993z M57.585,33.325c1.041,0,1.891,0.843,1.891,1.885  c0,1.036-0.85,1.885-1.891,1.885c-1.036,0-1.885-0.849-1.885-1.885C55.7,34.168,56.549,33.325,57.585,33.325z"/><text x="0" y="115" fill="#000000" font-size="5px" font-weight="bold" font-family="'Helvetica Neue', Helvetica, Arial-Unicode, Arial, Sans-serif">Created by hunotika</text><text x="0" y="120" fill="#000000" font-size="5px" font-weight="bold" font-family="'Helvetica Neue', Helvetica, Arial-Unicode, Arial, Sans-serif">from the Noun Project</text></svg>